<?xml version="1.0" standalone="no"?>
<!DOCTYPE svg PUBLIC "-//W3C//DTD SVG 20010904//EN"
 "http://www.w3.org/TR/2001/REC-SVG-20010904/DTD/svg10.dtd">
<svg version="1.0" xmlns="http://www.w3.org/2000/svg"
 width="510.000000pt" height="510.000000pt" viewBox="0 0 510.000000 510.000000"
 preserveAspectRatio="xMidYMid meet">
<metadata>
Created by potrace 1.11, written by Peter Selinger 2001-2013
</metadata>
<g transform="translate(0.000000,510.000000) scale(0.100000,-0.100000)"
fill="#000000" stroke="none">
<path d="M2418 5005 c-2 -2 -34 -6 -73 -9 -83 -7 -135 -13 -190 -21 -22 -4
-48 -7 -57 -8 -10 -1 -18 -4 -18 -7 0 -3 -8 -6 -17 -7 -28 -2 -75 -11 -110
-22 -17 -5 -34 -7 -37 -3 -3 3 -6 0 -6 -7 0 -7 -4 -10 -9 -7 -5 3 -26 -1 -47
-10 -21 -9 -46 -18 -56 -20 -10 -2 -26 -6 -35 -8 -22 -5 -190 -74 -218 -89
-11 -6 -22 -12 -25 -12 -3 0 -16 -7 -30 -15 -14 -8 -27 -15 -30 -15 -8 -1
-101 -52 -155 -85 -27 -17 -60 -36 -72 -42 -13 -6 -23 -15 -23 -20 0 -4 -5 -8
-11 -8 -6 0 -30 -16 -53 -35 -24 -19 -47 -35 -52 -35 -5 0 -44 -32 -87 -71
-42 -39 -77 -67 -77 -63 0 22 -328 -339 -342 -377 -4 -10 -11 -19 -15 -19 -4
0 -21 -23 -38 -50 -16 -27 -33 -50 -37 -50 -5 0 -8 -6 -8 -14 0 -7 -6 -18 -13
-25 -8 -6 -26 -37 -42 -68 -16 -32 -32 -60 -35 -63 -19 -18 -133 -269 -151
-335 -4 -16 -22 -70 -39 -120 -17 -49 -33 -106 -36 -125 -3 -19 -8 -38 -10
-42 -7 -10 -22 -98 -44 -258 -35 -243 -24 -514 31 -780 11 -52 22 -106 25
-120 24 -121 189 -525 246 -603 13 -17 27 -9 203 122 186 137 246 182 374 278
35 26 82 62 106 78 44 32 50 36 183 140 45 36 85 65 88 65 4 0 29 19 58 42 28
23 53 43 55 45 3 2 -13 21 -34 43 l-39 40 24 25 c29 31 17 33 -13 2 -23 -22
-25 -22 -300 -21 -162 0 -277 4 -277 10 1 20 589 610 631 633 54 29 179 82
179 75 0 -3 8 0 18 5 9 5 34 12 56 15 21 4 42 9 47 12 5 3 100 6 211 6 l203 2
268 260 c148 144 274 263 280 265 10 4 82 57 124 91 7 6 15 10 19 10 4 0 22
11 41 26 18 14 33 22 33 19 0 -4 13 3 29 14 16 12 34 21 40 21 6 0 11 5 11 12
0 6 3 8 7 5 3 -4 11 -3 17 2 13 10 184 82 206 86 8 2 42 13 75 25 33 11 69 23
80 25 11 3 34 8 50 12 17 3 37 7 45 9 8 1 26 5 40 8 64 15 180 26 180 17 0 -4
12 -7 26 -7 68 -4 110 -100 100 -228 -4 -44 -6 -93 -6 -108 0 -15 -4 -29 -10
-33 -5 -3 -10 -17 -10 -30 0 -22 -60 -217 -80 -260 -5 -11 -27 -58 -48 -105
-49 -109 -129 -237 -202 -327 -6 -7 -10 -15 -10 -19 0 -13 -154 -187 -335
-377 -204 -215 -260 -277 -250 -277 4 0 15 10 24 22 18 21 18 19 25 -78 6 -88
3 -139 -20 -333 -3 -25 -7 -48 -10 -53 -3 -4 -7 -17 -9 -28 -5 -27 -48 -114
-57 -118 -5 -2 -8 -8 -8 -14 0 -22 -70 -97 -346 -374 l-291 -291 -7 135 c-10
225 -8 416 7 431 10 11 9 12 -1 6 -9 -5 -29 8 -58 36 -26 26 -47 39 -52 34 -5
-6 -33 -44 -62 -85 -29 -41 -70 -97 -90 -125 -20 -27 -58 -79 -83 -115 -26
-36 -51 -69 -55 -75 -4 -5 -34 -46 -65 -90 -31 -44 -72 -100 -90 -125 -17 -24
-94 -129 -170 -234 -121 -164 -170 -239 -142 -214 4 4 20 -1 34 -11 26 -18 91
-49 101 -47 3 1 20 -9 38 -22 17 -13 32 -20 32 -17 0 4 16 -3 35 -15 19 -12
35 -19 35 -16 0 4 11 -1 25 -10 14 -9 25 -13 25 -10 0 4 14 0 30 -9 17 -9 30
-13 30 -11 0 3 20 -3 45 -14 25 -11 45 -17 45 -14 0 2 9 0 21 -6 11 -6 29 -13
40 -16 10 -2 28 -6 39 -8 11 -3 25 -8 30 -11 6 -4 25 -8 43 -11 48 -6 76 -12
87 -19 13 -8 94 -20 220 -31 89 -8 369 -8 450 -1 133 13 144 14 188 21 23 4
52 9 65 11 12 2 38 7 57 11 19 4 43 7 53 8 9 0 17 3 17 6 0 4 6 7 13 8 6 0 22
3 35 6 12 3 32 9 45 12 12 3 28 6 35 6 6 1 12 6 12 11 0 6 3 8 6 5 3 -4 37 7
76 23 39 16 75 29 79 29 5 0 32 11 61 24 29 13 79 36 110 50 32 15 60 25 62
24 3 -2 12 6 20 17 9 11 16 16 16 12 0 -5 14 1 30 13 17 12 30 19 30 15 0 -3
15 5 33 19 19 15 39 26 45 26 7 0 12 5 12 10 0 6 5 10 11 10 7 0 32 16 55 36
24 19 44 32 44 28 0 -4 11 5 24 19 13 14 26 24 28 21 3 -2 15 7 28 21 13 14
27 25 31 25 5 0 23 16 42 35 19 19 38 35 43 35 11 0 244 232 244 243 0 5 13
23 30 40 16 18 46 52 65 77 19 25 40 50 45 57 6 7 10 15 10 19 0 3 14 23 30
44 17 21 30 40 30 43 0 3 16 28 35 57 19 29 38 63 41 76 3 13 10 24 15 24 5 0
14 11 19 24 5 14 23 54 40 90 16 36 30 70 30 76 0 5 4 10 9 10 5 0 12 16 15
35 4 19 11 35 16 35 6 0 10 8 10 18 0 9 9 42 21 72 18 49 27 77 59 185 5 17
12 46 15 65 3 19 10 49 14 65 9 31 23 123 41 274 19 160 7 465 -25 636 -51
267 -107 440 -217 665 -80 164 -171 308 -277 438 -93 114 -311 352 -323 352
-5 0 -46 32 -91 71 -45 39 -89 74 -97 77 -8 3 -32 18 -52 35 -21 16 -38 26
-38 22 0 -3 -17 7 -37 22 -20 15 -39 27 -42 27 -3 -1 -25 12 -48 28 -24 16
-43 26 -43 23 0 -4 -13 3 -30 15 -16 12 -30 19 -30 16 0 -4 -18 5 -40 19 -22
14 -40 22 -40 19 0 -3 -11 1 -25 10 -14 9 -25 14 -25 12 0 -3 -36 10 -80 29
-44 19 -80 32 -80 29 0 -2 -9 0 -21 6 -11 6 -30 14 -42 16 -27 6 -31 7 -87 24
-59 18 -61 18 -90 24 -14 3 -36 8 -50 11 -14 4 -34 8 -45 10 -11 2 -31 6 -45
9 -28 6 -82 14 -150 21 -51 6 -407 14 -412 10z"/>
<path d="M2935 3330 c-112 -36 -172 -86 -226 -190 -20 -38 -23 -60 -24 -140 0
-84 3 -102 28 -152 39 -80 127 -159 203 -183 189 -59 387 43 449 233 22 68 16
168 -15 239 -36 85 -148 179 -235 199 -51 12 -134 9 -180 -6z"/>
<path d="M2118 2909 c-36 -38 -20 -38 17 1 16 17 25 30 19 29 -5 0 -21 -14
-36 -30z"/>
<path d="M2056 2849 c-11 -10 -15 -19 -9 -19 5 0 18 9 28 20 23 26 6 25 -19
-1z"/>
<path d="M1998 2789 c-36 -38 -20 -38 17 1 16 17 25 30 19 29 -5 0 -21 -14
-36 -30z"/>
<path d="M1938 2729 c-10 -10 -14 -19 -10 -19 5 0 17 9 27 20 10 11 14 20 9
19 -5 0 -17 -9 -26 -20z"/>
<path d="M1853 2644 c-29 -30 -49 -54 -45 -54 4 0 32 25 62 55 30 30 50 55 45
54 -6 0 -33 -25 -62 -55z"/>
<path d="M1766 2559 c-11 -10 -15 -19 -9 -19 5 0 18 9 28 20 23 26 6 25 -19
-1z"/>
<path d="M1708 2499 c-36 -38 -20 -38 17 1 16 17 25 30 19 29 -5 0 -21 -14
-36 -30z"/>
<path d="M1648 2439 c-10 -10 -14 -19 -10 -19 5 0 17 9 27 20 10 11 14 20 9
19 -5 0 -17 -9 -26 -20z"/>
<path d="M1563 2354 c-29 -30 -49 -54 -45 -54 4 0 32 25 62 55 30 30 50 55 45
54 -6 0 -33 -25 -62 -55z"/>
<path d="M1476 2269 c-11 -10 -15 -19 -9 -19 5 0 18 9 28 20 23 26 6 25 -19
-1z"/>
<path d="M2875 2060 c-10 -11 -14 -20 -9 -20 5 0 15 9 22 20 7 11 11 20 9 20
-2 0 -12 -9 -22 -20z"/>
<path d="M2755 1940 c-10 -11 -15 -20 -12 -20 4 0 16 9 27 20 11 11 16 20 12
20 -5 0 -17 -9 -27 -20z"/>
<path d="M2695 1880 c-16 -16 -25 -30 -22 -30 4 0 21 14 37 30 16 17 26 30 22
30 -5 0 -21 -13 -37 -30z"/>
<path d="M2635 1820 c-10 -11 -14 -20 -9 -20 5 0 15 9 22 20 7 11 11 20 9 20
-2 0 -12 -9 -22 -20z"/>
<path d="M2585 1770 c-10 -11 -15 -20 -12 -20 4 0 16 9 27 20 11 11 16 20 12
20 -5 0 -17 -9 -27 -20z"/>
<path d="M2515 1700 c-10 -11 -14 -20 -9 -20 5 0 15 9 22 20 7 11 11 20 9 20
-2 0 -12 -9 -22 -20z"/>
<path d="M2465 1650 c-10 -11 -14 -20 -9 -20 5 0 15 9 22 20 7 11 11 20 9 20
-2 0 -12 -9 -22 -20z"/>
<path d="M2415 1600 c-10 -11 -15 -20 -12 -20 4 0 16 9 27 20 11 11 16 20 12
20 -5 0 -17 -9 -27 -20z"/>
<path d="M2380 1559 c0 -5 5 -7 10 -4 6 3 10 8 10 11 0 2 -4 4 -10 4 -5 0 -10
-5 -10 -11z"/>
</g>
</svg>
